<svg width="91" height="44" viewBox="0 0 91 44" fill="none" xmlns="http://www.w3.org/2000/svg">
<rect y="28" width="90" height="16" fill="url(#paint0_linear_37_14997)"/>
<path d="M2.72 36.873V21.973H6.3V33.873H12.1V36.873H2.72ZM19.817 37.153C15.757 37.153 12.997 34.233 12.997 29.353C12.997 24.473 15.757 21.713 19.817 21.713C23.877 21.713 26.637 24.493 26.637 29.353C26.637 34.233 23.877 37.153 19.817 37.153ZM19.817 34.073C21.777 34.073 22.997 32.233 22.997 29.353C22.997 26.473 21.777 24.773 19.817 24.773C17.857 24.773 16.657 26.473 16.657 29.353C16.657 32.233 17.857 34.073 19.817 34.073ZM31.4789 36.873V24.953H27.4589V21.973H39.0989V24.953H35.0589V36.873H31.4789ZM44.2719 36.873V24.953H40.2519V21.973H51.8919V24.953H47.8519V36.873H44.2719ZM54.1848 36.873V21.973H57.7648V36.873H54.1848ZM61.177 36.873V21.973H64.817L68.517 29.113L69.977 32.413H70.077C69.897 30.833 69.597 28.693 69.597 26.913V21.973H72.997V36.873H69.357L65.677 29.693L64.217 26.433H64.117C64.277 28.093 64.577 30.133 64.577 31.933V36.873H61.177ZM83.1505 37.153C79.0305 37.153 75.7705 34.553 75.7705 29.513C75.7705 24.553 79.1105 21.713 83.0905 21.713C85.2705 21.713 86.8305 22.633 87.8505 23.653L85.9705 25.933C85.2305 25.273 84.4505 24.773 83.2105 24.773C81.0105 24.773 79.4305 26.493 79.4305 29.393C79.4305 32.353 80.7505 34.073 83.5305 34.073C84.0505 34.073 84.6105 33.933 84.9305 33.693V31.293H82.5705V28.373H88.1105V35.333C87.0705 36.333 85.2305 37.153 83.1505 37.153Z" fill="url(#paint1_linear_37_14997)"/>
<path d="M1 17.532L46.7308 3.08801" stroke="#7152F3" stroke-width="5"/>
<path d="M89.9353 17.5347L45.215 3.09066" stroke="#7152F3" stroke-width="5"/>
<defs>
<linearGradient id="paint0_linear_37_14997" x1="45" y1="28" x2="45" y2="44" gradientUnits="userSpaceOnUse">
<stop offset="0.733333" stop-color="#C8BDF9" stop-opacity="0"/>
<stop offset="1" stop-color="#7152F3"/>
</linearGradient>
<linearGradient id="paint1_linear_37_14997" x1="45.5" y1="15.873" x2="45.5003" y2="147.873" gradientUnits="userSpaceOnUse">
<stop offset="0.613541" stop-color="#7152F3"/>
<stop offset="1" stop-color="#1A1047" stop-opacity="0"/>
</linearGradient>
</defs>
</svg>
